# xmcd
#
# Track frame offsets:
#	150
#	16706
#	31510
#	45072
#	48734
#	63587
#	76550
#	89555
#	100440
#	114196
#	128501
#	142199
#	153600
#	166349
#	174559
#	188725
#	201701
#	213868
#	226899
#	237156
#
# Disc length: 3312 seconds
#
# Revision: 0
# Processed by: cddbd v1.5.2PL0 Copyright (c) Steve Scherf et al.
# Submitted via: EasyCDDAExtractor 16.0.6.1
#
DISCID=fe0cee14
DTITLE=Ρεπάνης Αντώνης - Τραγούδια 45 στροφές-Ρεπάνης Αντώνης 3
DYEAR=2001
DGENRE=Λαϊκή
TTITLE0=Ρεπάνης Αντώνης-Γκίκα Βούλα - Σ' αγαπώ, σε μισώ [μουσ. στ. Στέλιος Μακ
TTITLE0=ρυδάκης]
TTITLE1=Ρεπάνης Αντώνης - Χάνομαι [μουσ. στ. Θεόδωρος Δερβενιώτης]
TTITLE2=Ρεπάνης Αντώνης-Λαύκας Γ. - Μού κάρφωσες τα μάτια [μουσ. στ. Γ. Λαύκας
TTITLE2=]
TTITLE3=Ρεπάνης Αντώνης-Κούρτη Ρία - Τι όμορφη που είσαι όταν κλαις [Στέλιος Χ
TTITLE3=ρυσίνης-Χρήστος Κολοκοτρώνης]
TTITLE4=Ρεπάνης Αντώνης - Σ' είχα τόσο συνηθήσει [ανέκδοτον, μουσ. στ. Στέλιος
TTITLE4=Μακρυδάκης]
TTITLE5=Ρεπάνης Αντώνης - Από τον άτυχο τον έρωτά μου [Στέλιος Μακρυδάκης-Δημή
TTITLE5=τρης Γκούτης]
TTITLE6=Ρεπάνης Αντώνης - Στου δειλινού τα μονοπάτια [Αντώνης Ρεπάνης-Παναγιώτ
TTITLE6=ης Καμηλιέρης]
TTITLE7=Ρεπάνης Αντώνης-Γκίκα Βούλα - Χαμένη αγάπη [Αντώνης Ρεπάνης-Μιχάλης Το
TTITLE7=υτουντζής]
TTITLE8=Ρεπάνης Αντώνης - Έχασα τα ίχνη σου [Αντώνης Ρεπάνης-Ηρακλής Παπασιδέρ
TTITLE8=ης]
TTITLE9=Ρεπάνης Αντώνης - Ήρθες εσύ [Αντώνης Ρεπάνης-Παναγιώτης Καμηλιέρης]
TTITLE10=Ρεπάνης Αντώνης - Τώρα που σ' έχασα [Αντώνης Ρεπάνης-Δημήτρης Γκούτης
TTITLE10=]
TTITLE11=Ρεπάνης Αντώνης - Δώσε βάση [Αντώνης Ρεπάνης-Κ. Κατσίπης]
TTITLE12=Ρεπάνης Αντώνης - Ποιος [Αντώνης Ρεπάνης-Τ. Οικονόμου]
TTITLE13=Ρεπάνης Αντώνης-Γκίκα Βούλα - Καταραμένη φτώχεια [μουσ. στ. Απ. Χατζη
TTITLE13=χρήστος]
TTITLE14=Ρεπάνης Αντώνης - Την ζωή τι να την κάνω [ανέκδοτον]
TTITLE15=Ρεπάνης Αντώνης - Η λύτρωσή μου [Αντώνης Ρεπάνης-Δημήτρης Γκούτης]
TTITLE16=Ρεπάνης Αντώνης-Δημητρίου Φούλη - Χέρι-χέρι [Γιάννης Καραμπεσίνης-Νέσ
TTITLE16=τορας Μάτσας]
TTITLE17=Ρεπάνης Αντώνης-Ίμβρου Σόνια - Εσύ γλυκειά μου μόνο [μουσ. στ. Βασίλη
TTITLE17=ς Τσιτσάνης]
TTITLE18=Ρεπάνης Αντώνης - Βασίστηκα στα λόγια σου [Αντώνης Ρεπάνης-Μ. Γαβριηλ
TTITLE18=ίδης]
TTITLE19=Ρεπάνης Αντώνης - Με πήρε πάλι το πρωΐ [μουσ. στ. Απόστολος Καλδάρας]
EXTD=
EXTT0=
EXTT1=
EXTT2=
EXTT3=
EXTT4=
EXTT5=
EXTT6=
EXTT7=
EXTT8=
EXTT9=
EXTT10=
EXTT11=
EXTT12=
EXTT13=
EXTT14=
EXTT15=
EXTT16=
EXTT17=
EXTT18=
EXTT19=
PLAYORDER=
